simulation
nRows=31
nColumns=15
endheader
time  TH_x TH_y TH_z SC_y  SC_z  SC_x  AC_y  AC_z  AC_x  GH_y  GH_z  GH_yy  EL_x  PS_y
0.000000  0.000000  0.000000  0.000000  -19.997137  7.045069  15.170681  56.426855  14.263130  3.117864  40.204154  60.902069  -43.965107  21.320691  63.116512
0.062626  0.000000  0.000000  0.000000  -20.015218  5.984423  14.368247  56.728072  14.757933  3.070451  39.773384  59.861376  -45.541927  24.530714  65.328504
0.125253  0.000000  0.000000  0.000000  -19.995204  5.168147  13.698760  56.911120  15.094097  3.015770  39.517839  59.007278  -46.860139  26.979117  66.825350
0.187879  0.000000  0.000000  0.000000  -19.942463  4.569958  13.160075  56.994315  15.297499  2.959951  39.403866  58.332962  -47.907459  28.733430  67.716446
0.250505  0.000000  0.000000  0.000000  -19.862363  4.163572  12.755624  56.996411  15.390339  2.904132  39.397811  57.831616  -48.671602  29.861179  68.111187
0.313131  0.000000  0.000000  0.000000  -19.760271  3.922706  12.485438  56.935453  15.398283  2.850223  39.466023  57.496429  -49.140284  30.429894  68.118970
0.375758  0.000000  0.000000  0.000000  -19.641555  3.821075  12.354990  56.830217  15.342751  2.796487  39.574849  57.320587  -49.301222  30.507103  67.849190
0.438384  0.000000  0.000000  0.000000  -19.511584  3.832397  12.361255  56.698207  15.252355  2.745909  39.690636  57.297279  -49.142131  30.160334  67.411243
0.501010  0.000000  0.000000  0.000000  -19.375725  3.930388  12.511615  56.558571  15.146866  2.695835  39.779731  57.419692  -48.650728  29.457116  66.914524
0.563636  0.000000  0.000000  0.000000  -19.239346  4.088765  12.804076  56.429195  15.053618  2.649477  39.808482  57.681014  -47.814729  28.464977  66.468430
0.626263  0.000000  0.000000  0.000000  -19.107815  4.281245  13.245513  56.329472  14.992152  2.605660  39.743236  58.074433  -46.621849  27.251446  66.182356
0.688889  0.000000  0.000000  0.000000  -18.986482  4.483397  13.834883  56.278278  14.986215  2.568295  39.552725  58.593397  -45.062787  25.883605  66.160686
0.751515  0.000000  0.000000  0.000000  -18.880406  4.701002  14.551927  56.299360  15.043378  2.550198  39.244521  59.235599  -43.176813  24.421283  66.426169
0.814141  0.000000  0.000000  0.000000  -18.794410  4.964411  15.355778  56.419397  15.162069  2.574391  38.857794  60.002183  -41.042712  22.918403  66.935141
0.876768  0.000000  0.000000  0.000000  -18.733309  5.304692  16.205792  56.664946  15.339354  2.664120  38.432630  60.894394  -38.740416  21.428719  67.642009
0.939394  0.000000  0.000000  0.000000  -18.701919  5.752911  17.058278  57.061786  15.574616  2.844296  38.009117  61.913479  -36.349858  20.005985  68.501182
1.002020  0.000000  0.000000  0.000000  -18.705013  6.339259  17.870391  57.634688  15.867050  3.138413  37.627390  63.059922  -33.951204  18.703778  69.467701
1.064646  0.000000  0.000000  0.000000  -18.745336  7.052504  18.624286  58.370597  16.215908  3.545464  37.329857  64.298315  -31.635596  17.567365  70.526620
1.127273  0.000000  0.000000  0.000000  -18.822768  7.822931  19.346967  59.204782  16.612500  4.025724  37.162133  65.542566  -29.509680  16.630281  71.705367
1.189899  0.000000  0.000000  0.000000  -18.936975  8.576408  20.074774  60.069630  17.042676  4.534173  37.170075  66.702757  -27.681270  15.925172  73.034568
1.252525  0.000000  0.000000  0.000000  -19.087621  9.238803  20.852784  60.898842  17.484564  5.023086  37.399540  67.688970  -26.258184  15.484687  74.544851
1.315152  0.000000  0.000000  0.000000  -19.274358  9.736060  21.729428  61.626713  17.913045  5.445059  37.896272  68.411406  -25.348062  15.341380  76.266721
1.377778  0.000000  0.000000  0.000000  -19.491662  10.023788  22.718515  62.217326  18.304242  5.767554  38.661451  68.826575  -24.991034  15.491225  78.182543
1.440404  0.000000  0.000000  0.000000  -19.720998  10.132160  23.711632  62.703551  18.668683  6.009247  39.584250  69.007392  -25.057539  15.838254  80.153692
1.503030  0.000000  0.000000  0.000000  -19.941822  10.102877  24.576592  63.127141  19.027059  6.197321  40.536528  69.044765  -25.391780  16.272286  82.022838
1.565657  0.000000  0.000000  0.000000  -20.133587  9.977638  25.181967  63.528849  19.399642  6.357532  41.390140  69.029606  -25.837960  16.683137  83.632648
1.628283  0.000000  0.000000  0.000000  -20.275748  9.798146  25.398632  63.949145  19.805038  6.513297  42.016944  69.052822  -26.240281  16.960625  84.825791
1.690909  0.000000  0.000000  0.000000  -20.352672  9.602306  25.130824  64.414623  20.264976  6.684169  42.321262  69.185287  -26.472204  17.020941  85.489045
1.753535  0.000000  0.000000  0.000000  -20.371744  9.410244  24.501820  64.896184  20.755228  6.853619  42.359533  69.403982  -26.544267  16.903842  85.715851
1.816162  0.000000  0.000000  0.000000  -20.347086  9.236882  23.697421  65.348148  21.237725  6.999563  42.232710  69.658415  -26.507122  16.685245  85.660129
1.878788  0.000000  0.000000  0.000000  -20.292819  9.097143  22.911276  65.725303  21.664892  7.102360  42.041750  69.898091  -26.411426  16.441070  85.475804
